# xmcd
#
# Track frame offsets:
#	150
#	13712
#	27767
#	42332
#	53370
#	66332
#	80562
#	91587
#	108480
#	125357
#	140207
#	154372
#	164687
#	179680
#	192695
#	211757
#	223937
#	233477
#	246080
#	260390
#	271862
#	281640
#	296777
#	311105
#
# Disc length: 4350 seconds
#
# Revision: 2
# Processed by: cddbd v1.5.1PL2 Copyright (c) Steve Scherf et al.
# Submitted via: audiograbber 1.83.01
#
DISCID=6d10fc18
DTITLE=Perry Como - World of Dreams
DYEAR=1995
DGENRE=Oldies
TTITLE0=World of Dreams
TTITLE1=Jason
TTITLE2=Long life, ots of happiness
TTITLE3=Wonderful baby
TTITLE4=Someone who cares
TTITLE5=What's one more time
TTITLE6=Love looks some good on you
TTITLE7=Meditation
TTITLE8=There'll never be another night like this
TTITLE9=That's you
TTITLE10=Beats there a heart so true
TTITLE11=I thought about you
TTITLE12=Unchained melody
TTITLE13=When she smiles
TTITLE14=So it goes
TTITLE15=Where you're concerned
TTITLE16=You're following me
TTITLE17=Stand beside me
TTITLE18=How insensitive
TTITLE19=The hawaiian wedding song
TTITLE20=Dancin'
TTITLE21=Everybody is looking for an answer
TTITLE22=You are my world
TTITLE23=Bless the beasts and the children
EXTD=
EXTT0=
EXTT1=
EXTT2=
EXTT3=
EXTT4=
EXTT5=
EXTT6=
EXTT7=
EXTT8=
EXTT9=
EXTT10=
EXTT11=
EXTT12=
EXTT13=
EXTT14=
EXTT15=
EXTT16=
EXTT17=
EXTT18=
EXTT19=
EXTT20=
EXTT21=
EXTT22=
EXTT23=
PLAYORDER=
